<svg height="22" viewBox="0 0 22 22" width="22" xmlns="http://www.w3.org/2000/svg"><g stroke-width="1.333333" transform="matrix(.06159624 0 0 .06159624 -45.140382 11.171275)"><path d="m1061.4637 78.412063c-1.8072-28.84792-7.0115-55.13151-15.4455-78.00578036-2.2418-6.08017004-4.2665-11.24531964-4.4992-11.47808964-2.5476 3.179218-3.7006 6.2008319-5.6615 10.16408964l-4.4425-10.50919964c-11.5722-20.12798-21.5582-41.168738-37.52661-59.46999-24.50456-27.526441-60.35708-52.626943-94.06487-65.855233-24.65965-9.67743-53.84904-15.90326-75.06134-16.00988-9.29723-.0467-9.8126-.19561-7.33334-2.11847 4.45489-3.4551 24.73755-13.29513 35.02178-16.99062 18.95044-6.80959 34.90004-9.33372 58.97822-9.33372 17.61647 0 24.71878.58304 35.6449 2.92615 35.85556 7.68925 64.70396 23.28982 90.39666 48.88454 34.7449 34.612368 52.3977 76.948843 52.5374 126.0000026-.3878 31.4362194-5.552 70.2336384-26.533 95.1295304-.6077.62124-1.5127-5.37876-2.0111-13.33333zm-70.7846 49.201057c-.0703-24.5192-.52864-31.056337-2.96816-42.330597-3.22993-14.92713-10.64188-36.927397-10.84839-33s-3.16251 3.971109-4.44736 6.36956c-1.72178 3.28615-1.87512 3.09638-6.19431-7.66666-26.66897-64.932113-87.6161-114.068759-156.65329-130.607943-10.62336-2.268043-18.19454-2.891936-35.80541-2.950506-12.28334-.04085-22.33334-.182422-22.33334-.314605 8.01662-14.611292 17.38973-28.360209 27.97118-41.163179l27.01441.0693c42.18551.10819 68.51924 6.14009 104.34775 23.90151 29.46164 14.605149 52.82986 33.132963 72.34859 57.362553 23.76193 27.183508 38.78483 66.91908 45.64093 98.66666 4.3122 27.855563 3.6711 42.483314 4.3113 71.507867-8.2049 7.91488-32.536 27.84882-41.19183 29.15607-.60995-.001-1.14638-13.0515-1.19207-29zm-69.15674 33.51162c-.5283-7.97988-1.83056-19.60888-2.89388-25.84222-2.31173-13.55173-9.95738-38.828967-10.88898-35.999997-.80255 2.437037-4.38054 6.666667-5.63959 6.666667-6.06008-13.764098-13.4302-28.72171-21.03409-42.483317-33.89253-42.792326-84.45432-77.191744-136.52935-75.15147-8.40961.4795-11.90378.25634-11.29936-.72165-1.66373-13.343984 2.15006-28.762747 7.52378-41.96613l29.00064.6999c22.6898.5476 31.90212 1.32574 42.33398 3.57579 73.74659 14.140493 126.5026 71.027037 145.45899 142.71355 4.77841 25.755617 6.40628 50.969977 3.87434 76.666657-12.94016 3.67272-27.40109 5.34835-38.94589 6.3511z" fill="#4b94c6"/><path d="m875.42884 172.67654c-62.3237-13.29894-113.4186-58.7096-133.28452-118.456817-4.19621-12.6202-8.04881-29.87212-8.04881-36.04254 0-3.66383.38556-3.93559 6.78856-4.78498 74.26257-.902659 145.86778 87.498477 153.84647 150.890317l.88157 11c-6.99677.0287-14.23274-1.3498-20.18327-2.60602z" fill="#a2a3a7"/></g></svg>